<?xml version="1.0" encoding="UTF-8"?>
<svg id="Layer_1" data-name="Layer 1" xmlns="http://www.w3.org/2000/svg" viewBox="0 0 194.451 303.319">
  <defs>
    <style>
      .cls-1 {
        fill: #ea0029;
      }

      .cls-1, .cls-2 {
        stroke-width: 0px;
      }

      .cls-2 {
        fill: #231f20;
      }
    </style>
  </defs>
  <path class="cls-1" d="m117.653,239.662S42.388,210.082,6.579,139.991l37.178-26.877s12.315,86.537,73.895,126.548Z"/>
  <path class="cls-1" d="m50.73,88.148s2.915,103.36,67.12,150.908c0,0-58.93-62.668-18.772-180.482l-48.347,29.574Z"/>
  <path class="cls-1" d="m117.119,38.073s-56.645,121.517.862,200.515c0,0-43.386-99.167,76.471-238.588l-77.333,38.073Z"/>
  <path class="cls-2" d="m57.409,302.935h-11.257l-5.146-10.051-12.302-23.782-12.302,23.782-5.146,10.051H0l5.146-10.051,23.558-46.571,23.558,46.571,5.146,10.051Z"/>
  <path class="cls-2" d="m163.329,246.675h-24.666l5.233,10.059h17.992c5.904,0,10.708,3.222,10.708,9.127s-4.804,9.126-10.708,9.126h-7.949l-10.042-.034v28.005h10.042v-17.912h9.39c10.552,0,19.185-8.633,19.185-19.185s-8.634-19.185-19.185-19.185Z"/>
  <polygon class="cls-2" points="86.607 246.675 44.189 246.675 44.189 256.725 60.373 256.725 60.373 302.958 70.424 302.958 70.424 256.725 86.607 256.725 86.607 246.675"/>
  <path class="cls-2" d="m140.502,274.816c0,15.717-12.786,28.503-28.503,28.503s-28.503-12.786-28.503-28.503,12.786-28.503,28.503-28.503,28.503,12.786,28.503,28.503Zm-10.18,0c0-10.098-8.225-18.323-18.323-18.323s-18.323,8.225-18.323,18.323,8.225,18.323,18.323,18.323,18.323-8.225,18.323-18.323Z"/>
</svg>