<?xml version="1.0" encoding="UTF-8"?><svg id="Layer_2" xmlns="http://www.w3.org/2000/svg" viewBox="0 0 256 88.9"><defs><style>.cls-1{fill:#fff;}</style></defs><g id="Layer_1-2"><path class="cls-1" d="m184.37,60.44c.07-.34.37-.58.72-.58h2.21c3.05,0,4.72,1.34,4.72,4.21,0,3.56-2.42,6.26-6.16,6.26h-2.7c-.47,0-.81-.43-.72-.89l1.93-9.01Zm-8.98-8.07l-7.39,34.94c-.1.46.25.88.72.88h9.18c.35,0,.64-.24.72-.58l1.87-8.78c.07-.34.37-.58.72-.58h4.58c10.45,0,16.96-5.85,16.96-15.14,0-6.79-4.82-11.33-13.42-11.33h-13.21c-.35,0-.64.24-.72.58Z"/><path class="cls-1" d="m202.96,88.2h7.35c.61,0,1.14-.43,1.27-1.03l2.86-13.2c.83-3.83,3.23-5.68,6.53-5.68,1.1,0,2,.18,2.84.48.73.25,1.52-.2,1.68-.96l1.32-6.02c.15-.67-.25-1.35-.91-1.53-.78-.21-1.63-.31-2.68-.31-3,0-5.48,1.84-6.74,4.44h-.2l.49-2.48c.16-.81-.46-1.56-1.28-1.56h-7.12c-.61,0-1.15.43-1.28,1.03l-5.42,25.25c-.17.81.44,1.58,1.28,1.58Z"/><path class="cls-1" d="m242.53,59.63c-9.74,0-16.65,6.92-16.65,16.63,0,7.54,5.45,12.64,13.47,12.64,9.74,0,16.65-6.91,16.65-16.63,0-7.54-5.45-12.64-13.47-12.64Zm-2.73,21.62c-2.27,0-3.78-2.09-3.78-5.2,0-5.05,2.55-8.78,6.01-8.78,2.27,0,3.76,2.07,3.76,5.2,0,4.95-2.6,8.78-5.98,8.78Z"/><path class="cls-1" d="m15.71,0C6.08,0,0,6.32,0,16.45s6.05,16.43,15.71,16.43,15.68-6.29,15.68-16.43S25.32,0,15.71,0Zm9.49,21.77h-4.13c-.3,0-.55.25-.55.55v4.13c0,1.28-1.05,2.33-2.33,2.33h-4.67c-1.29,0-2.34-1.05-2.34-2.34v-4.12c0-.3-.25-.55-.55-.55h-4.12c-1.29,0-2.34-1.05-2.34-2.34v-4.67c0-1.29,1.05-2.33,2.33-2.33h4.13c.3,0,.55-.25.55-.55v-4.13c0-1.29,1.05-2.34,2.34-2.34h4.67c1.29,0,2.33,1.05,2.33,2.33v4.13c0,.3.25.55.55.55h4.13c1.28,0,2.33,1.05,2.33,2.33v4.67c0,1.28-1.05,2.33-2.33,2.33Z"/><path class="cls-1" d="m41.24,32.33c.76,0,1.37-.61,1.37-1.37v-12.68h.15l9.58,12.63c.68.89,1.73,1.42,2.85,1.42h2.91c.76,0,1.37-.61,1.37-1.37V7.29c0-.76-.61-1.37-1.37-1.37h-4.66c-.76,0-1.37.61-1.37,1.37v12.46h-.15l-9.36-12.2c-.79-1.03-2.01-1.63-3.31-1.63h-3.53c-.28,0-.51.23-.51.51v24.52c0,.76.61,1.37,1.37,1.37h4.66Z"/><path class="cls-1" d="m79.81,31.61v-7.52c0-.12.03-.23.08-.33l9.21-17.84h-7.75c-.28,0-.54.17-.66.43l-4.63,10.3h-.15l-3.79-8.42c-.63-1.4-2.03-2.31-3.57-2.31h-4.67c-.54,0-.89.57-.64,1.05l8.67,16.78c.05.1.08.22.08.33v5.99c0,1.24,1.01,2.24,2.24,2.24h4.85c.4,0,.72-.32.72-.72Z"/><path class="cls-1" d="m103.38,32.79c6.97,0,12.1-4.14,12.56-10.27.03-.42-.29-.78-.71-.78h-6.17c-.32,0-.61.23-.66.55-.44,2.75-2.37,4.47-5,4.47-3.37,0-5.46-2.84-5.46-7.64s2.11-7.6,5.44-7.6c2.6,0,4.55,1.71,4.97,4.38.06.36.37.62.74.62h6.1c.42,0,.74-.36.71-.78-.45-6.09-5.68-10.25-12.52-10.25-8.26,0-13.43,4.93-13.43,13.65s5.15,13.65,13.43,13.65Z"/><path class="cls-1" d="m132.75,11.61c3.39,0,5.66,2.93,5.66,7.53s-2.25,7.53-5.66,7.53-5.66-2.93-5.66-7.53,2.27-7.53,5.66-7.53Zm0-6.12c-8.37,0-13.65,5.22-13.65,13.65s5.26,13.65,13.65,13.65,13.63-5.22,13.63-13.65-5.26-13.65-13.63-13.65Z"/><path class="cls-1" d="m150.81,23.12c-.81,0-1.43.73-1.3,1.53.84,5.22,5.65,8.22,13.06,8.22,8.19,0,13.41-4.03,13.41-10.35,0-5.02-2.82-7.86-9.1-9.07l-4.12-.77c-3.33-.68-4.73-1.63-4.73-3.35,0-1.94,1.87-3.22,4.69-3.22,1.96,0,3.56.63,4.45,1.74.95,1.19,2.33,1.96,3.86,1.96h2.9c.81,0,1.43-.73,1.3-1.53-.81-5.09-5.35-8.3-12.6-8.3s-12.64,3.97-12.64,10.13c0,4.82,3.02,7.99,8.88,9.12l4.16.81c3.61.75,4.96,1.61,4.96,3.37,0,1.92-2.05,3.33-5.2,3.33-2.18,0-4.07-.77-5.04-2.03-.76-.98-1.88-1.61-3.12-1.61h-3.82Z"/><path class="cls-1" d="m193.63,30.94V12.88c0-.47.38-.86.86-.86h4.96c.76,0,1.39-.62,1.39-1.39v-3.33c0-.76-.62-1.39-1.39-1.39h-19.45c-.76,0-1.39.62-1.39,1.39v3.33c0,.76.62,1.39,1.39,1.39h4.94c.47,0,.86.38.86.86v18.06c0,.76.62,1.39,1.39,1.39h5.07c.76,0,1.39-.62,1.39-1.39Z"/><path class="cls-1" d="m215.96,11.61c3.39,0,5.66,2.93,5.66,7.53s-2.25,7.53-5.66,7.53-5.66-2.93-5.66-7.53,2.27-7.53,5.66-7.53Zm0-6.12c-8.37,0-13.65,5.22-13.65,13.65s5.26,13.65,13.65,13.65,13.63-5.22,13.63-13.65-5.26-13.65-13.63-13.65Z"/><path class="cls-1" d="m241.33,12.89c0-.65.52-1.17,1.17-1.17h1.23c2.62,0,4.23,1.3,4.23,3.83s-1.61,3.86-4.27,3.86h-1.19c-.65,0-1.17-.52-1.17-1.17v-5.35Zm-7.84-5.79v24.06c0,.65.52,1.17,1.17,1.17h5.5c.65,0,1.17-.52,1.17-1.17v-4.4c0-.94.76-1.7,1.7-1.7h2.26c6.3,0,10.59-3.72,10.59-9.53s-4.08-9.6-10.07-9.6h-11.16c-.65,0-1.17.52-1.17,1.17Z"/></g></svg>